<?xml version="1.0" encoding="UTF-8"?>
<!DOCTYPE svg PUBLIC "-//W3C//DTD SVG 1.1//EN" "http://www.w3.org/Graphics/SVG/1.1/DTD/svg11.dtd">
<svg xmlns="http://www.w3.org/2000/svg" version="1.1" width="61px" height="44px" style="shape-rendering:geometricPrecision; text-rendering:geometricPrecision; image-rendering:optimizeQuality; fill-rule:evenodd; clip-rule:evenodd" xmlns:xlink="http://www.w3.org/1999/xlink">
<g><path style="opacity:1" fill="#fdfdfe" d="M -0.5,-0.5 C 19.8333,-0.5 40.1667,-0.5 60.5,-0.5C 60.5,14.1667 60.5,28.8333 60.5,43.5C 40.1667,43.5 19.8333,43.5 -0.5,43.5C -0.5,28.8333 -0.5,14.1667 -0.5,-0.5 Z"/></g>
<g><path style="opacity:1" fill="#386bec" d="M 14.5,13.5 C 16.7925,13.2436 18.9592,13.5769 21,14.5C 23.4682,21.0947 25.6348,27.7614 27.5,34.5C 25.8333,34.5 24.1667,34.5 22.5,34.5C 22.6247,31.1075 20.958,29.7741 17.5,30.5C 14.042,29.7741 12.3753,31.1075 12.5,34.5C 10.8333,34.5 9.16667,34.5 7.5,34.5C 9.63181,27.4379 11.9651,20.4379 14.5,13.5 Z"/></g>
<g><path style="opacity:1" fill="#396dec" d="M 30.5,13.5 C 32.1667,13.5 33.8333,13.5 35.5,13.5C 35.5,20.5 35.5,27.5 35.5,34.5C 33.8333,34.5 32.1667,34.5 30.5,34.5C 30.5,27.5 30.5,20.5 30.5,13.5 Z"/></g>
<g><path style="opacity:1" fill="#1c2231" d="M 46.5,18.5 C 47.5,18.5 48.5,18.5 49.5,18.5C 49.5,20.5 49.5,22.5 49.5,24.5C 51.5,24.5 53.5,24.5 55.5,24.5C 55.5,25.5 55.5,26.5 55.5,27.5C 53.5,27.5 51.5,27.5 49.5,27.5C 49.5,29.5 49.5,31.5 49.5,33.5C 48.5,33.5 47.5,33.5 46.5,33.5C 46.5,31.5 46.5,29.5 46.5,27.5C 44.8333,27.5 43.1667,27.5 41.5,27.5C 41.5,26.5 41.5,25.5 41.5,24.5C 43.1667,24.5 44.8333,24.5 46.5,24.5C 46.5,22.5 46.5,20.5 46.5,18.5 Z"/></g>
<g><path style="opacity:1" fill="#dae2fb" d="M 16.5,18.5 C 17.4972,18.4701 18.1639,18.9701 18.5,20C 19.0172,22.077 19.6839,24.077 20.5,26C 18.4213,26.8077 16.4213,26.641 14.5,25.5C 15.5771,23.2706 16.2437,20.9372 16.5,18.5 Z"/></g>
</svg>
